# xmcd CD database file
#
# Track frame offsets:
#	150
#	16815
#	43215
#	68872
#	83462
#	102677
#	117550
#	132795
#	178192
#
# Disc length: 2716 seconds
#
# Revision: 0
# Processed by: cddbd v1.5.2PL0 Copyright (c) Steve Scherf et al.
# Submitted via: CDex 1.51
#
DISCID=790a9a09
DTITLE=Brother Weasel - Brother Weasel
DYEAR=1996
DGENRE=Jazz
TTITLE0=Rock-A-Bye
TTITLE1=Black Not Red
TTITLE2=Sandu #1
TTITLE3=The Preacher
TTITLE4=Twisted
TTITLE5=Blues Walk
TTITLE6=Jivin' Around
TTITLE7=Chameleon
TTITLE8=Sandu #2
EXTD=YEAR: 1996
EXTT0=
EXTT1=
EXTT2=
EXTT3=
EXTT4=
EXTT5=
EXTT6=
EXTT7=
EXTT8=
PLAYORDER=
